#!OML:ASF G:\JayActor3\Patient Classification 1\Patient 1\Session 2\male.ASF
:FULLY-SPECIFIED
:DEGREES
2520
root 27.2104 16.8858 -5.77845 3076.21 84.0938 -524.901
lowerback -0.913917 0.271198 2.90694
upperback 6.18887 0.293262 1.58834
thorax 6.96304 0.325254 0.0605082
lowerneck -10.1933 -1.73826 0.863381
upperneck 23.7505 -3.09718 4.33742
head 9.19215 -0.695851 1.03708
rclavicle -1.58034e-014 -2.78299e-014
rhumerus -17.1018 -6.24792 -85.1721
rradius 20.0933
rwrist 3.01724
rhand -22.3036 5.78134
rfingers 7.12502
rthumb 4.11556 -24.1587
lclavicle -1.58034e-014 -2.78299e-014
lhumerus -29.2401 6.33834 86.0289
lradius 28.9692
lwrist 8.85413
lhand -19.143 14.785
lfingers 7.12502
lthumb 7.16715 44.6437
rfemur -11.6096 -2.88727 28.2701
rtibia 31.7123
rfoot -23.3622 -8.71129
rtoes 18.0724
lfemur -20.0466 3.87234 -16.5087
ltibia 57.6482
lfoot -9.02164 11.7529
ltoes -13.1042
2521
root 27.2746 16.8778 -5.77639 3076.32 83.9876 -524.738
lowerback -0.865946 0.295162 3.02309
upperback 6.19221 0.323298 1.58802
thorax 6.94079 0.347071 -0.00293613
lowerneck -10.1793 -1.75562 0.832831
upperneck 23.7324 -3.1227 4.37721
head 9.1849 -0.706379 1.05314
rclavicle 2.5345e-014 2.3059e-014
rhumerus -16.9218 -5.52266 -85.39
rradius 20.4208
rwrist 2.45912
rhand -22.3568 5.78426
rfingers 7.12502
rthumb 4.06422 -24.1567
lclavicle 2.5345e-014 2.3059e-014
lhumerus -29.2491 6.31545 86.06
lradius 29.2875
lwrist 8.98554
lhand -19.2004 14.758
lfingers 7.12502
lthumb 7.11174 44.6185
rfemur -11.3027 -2.95837 28.3511
rtibia 31.7177
rfoot -23.5516 -8.71894
rtoes 18.033
lfemur -20.7179 3.60113 -16.5661
ltibia 57.294
lfoot -9.40827 11.9349
ltoes -13.089
2522
root 27.3389 16.8698 -5.77484 3076.43 83.8878 -524.569
lowerback -0.819552 0.321529 3.13728
upperback 6.20059 0.35676 1.58763
thorax 6.92509 0.370643 -0.0650555
lowerneck -10.1669 -1.77195 0.802478
upperneck 23.7079 -3.14682 4.41638
head 9.17568 -0.716596 1.06902
rclavicle -1.83876e-014 -2.82274e-014
rhumerus -16.7586 -4.78939 -85.6009
rradius 20.7833
rwrist 1.90546
rhand -22.3963 5.77525
rfingers 7.12502
rthumb 4.02607 -24.1665
lclavicle -1.83876e-014 -2.82274e-014
lhumerus -29.2496 6.28746 86.1014
lradius 29.6006
lwrist 9.12517
lhand -19.2658 14.732
lfingers 7.12502
lthumb 7.04858 44.5946
rfemur -10.9858 -3.0166 28.4306
rtibia 31.7127
rfoot -23.7398 -8.73086
rtoes 18.0042
lfemur -21.3675 3.35578 -16.6242
ltibia 56.8968
lfoot -9.80065 12.0684
ltoes -12.9436
2523
root 27.4033 16.8621 -5.77368 3076.52 83.7925 -524.423
lowerback -0.774799 0.349157 3.24599
upperback 6.21187 0.392252 1.58612
thorax 6.91362 0.395038 -0.125089
lowerneck -10.1508 -1.78794 0.773476
upperneck 23.676 -3.1704 4.45487
head 9.16319 -0.726848 1.08444
rclavicle -3.77691e-015 -3.97569e-015
rhumerus -16.6129 -4.06103 -85.8046
rradius 21.1747
rwrist 1.3716
rhand -22.4104 5.7394
rfingers 7.12502
rthumb 4.01242 -24.2026
lclavicle -3.77691e-015 -3.97569e-015
lhumerus -29.2384 6.2678 86.1467
lradius 29.8941
lwrist 9.25113
lhand -19.3297 14.6955
lfingers 7.12502
lthumb 6.98692 44.5602
rfemur -10.6587 -3.06659 28.5058
rtibia 31.6931
rfoot -23.9179 -8.75186
rtoes 17.9976
lfemur -21.994 3.13851 -16.6872
ltibia 56.4497
lfoot -10.1831 12.1516
ltoes -12.7803
2524
root 27.468 16.8552 -5.77285 3076.56 83.7052 -524.327
lowerback -0.731346 0.378138 3.34388
upperback 6.22593 0.430148 1.5826
thorax 6.90599 0.420155 -0.180994
lowerneck -10.1339 -1.80256 0.748645
upperneck 23.6425 -3.192 4.48972
head 9.14984 -0.736293 1.09811
rclavicle 7.85199e-015 9.54166e-015
rhumerus -16.4815 -3.34591 -86.0006
rradius 21.5857
rwrist 0.860958
rhand -22.4175 5.71029
rfingers 7.12502
rthumb 4.00558 -24.2318
lclavicle 7.85199e-015 9.54166e-015
lhumerus -29.2264 6.2375 86.2013
lradius 30.1881
lwrist 9.3812
lhand -19.3892 14.671
lfingers 7.12502
lthumb 6.92946 44.5376
rfemur -10.3738 -3.112 28.5721
rtibia 31.7596
rfoot -24.1375 -8.75928
rtoes 17.9905
lfemur -22.6105 2.94926 -16.7593
ltibia 55.9952
lfoot -10.5639 12.1877
ltoes -12.668
2525
root 27.5329 16.8494 -5.77227 3076.56 83.6229 -524.266
lowerback -0.687937 0.407051 3.43278
upperback 6.24238 0.468461 1.5784
thorax 6.90099 0.445073 -0.23255
lowerneck -10.1193 -1.81552 0.728632
upperneck 23.61 -3.2106 4.51684
head 9.13697 -0.74474 1.10862
rclavicle -6.06293e-015 -3.18055e-015
rhumerus -16.3606 -2.63734 -86.189
rradius 22.0102
rwrist 0.365256
rhand -22.4173 5.68663
rfingers 7.12502
rthumb 4.00584 -24.2555
lclavicle -6.06293e-015 -3.18055e-015
lhumerus -29.2066 6.20985 86.2616
lradius 30.4683
lwrist 9.49525
lhand -19.4362 14.652
lfingers 7.12502
lthumb 6.88405 44.5201
rfemur -10.0724 -3.15234 28.6324
rtibia 31.7966
rfoot -24.3526 -8.76846
rtoes 18.0218
lfemur -23.1948 2.78692 -16.8389
ltibia 55.4779
lfoot -10.8831 12.1914
ltoes -12.6919
2526
root 27.5952 16.8243 -5.77321 3076.55 83.5473 -524.216
lowerback -0.645359 0.43473 3.51334
upperback 6.25983 0.505481 1.57429
thorax 6.89752 0.468912 -0.279437
lowerneck -10.1017 -1.82489 0.716227
upperneck 23.5772 -3.22315 4.53354
head 9.12302 -0.750883 1.11493
rclavicle 1.88845e-015 1.90833e-014
rhumerus -16.2489 -1.93403 -86.3723
rradius 22.4437
rwrist -0.121737
rhand -22.4086 5.66555
rfingers 7.12502
rthumb 4.01422 -24.2764
lclavicle 1.88845e-015 1.90833e-014
lhumerus -29.1845 6.18666 86.3265
lradius 30.7379
lwrist 9.5946
lhand -19.4687 14.6275
lfingers 7.12502
lthumb 6.85267 44.4966
rfemur -9.80113 -3.18868 28.6929
rtibia 31.8476
rfoot -24.5602 -8.78018
rtoes 18.0729
lfemur -23.835 2.64853 -16.9309
ltibia 54.9859
lfoot -11.1669 12.1635
ltoes -12.6595
2527
root 27.6609 16.821 -5.77309 3076.55 83.4772 -524.151
lowerback -0.602324 0.461052 3.58824
upperback 6.27767 0.540979 1.57071
thorax 6.89418 0.491677 -0.322735
lowerneck -10.0828 -1.83131 0.709994
upperneck 23.5473 -3.2311 4.54306
head 9.10949 -0.755028 1.11827
rclavicle -1.22253e-014 1.86858e-014
rhumerus -16.1462 -1.23846 -86.5518
rradius 22.8817
rwrist -0.608327
rhand -22.3935 5.64388
rfingers 7.12502
rthumb 4.02875 -24.2978
lclavicle -1.22253e-014 1.86858e-014
lhumerus -29.1592 6.16417 86.3956
lradius 30.9931
lwrist 9.68142
lhand -19.4832 14.6053
lfingers 7.12502
lthumb 6.83875 44.4748
rfemur -9.45739 -3.21008 28.7495
rtibia 31.8089
rfoot -24.7606 -8.79434
rtoes 18.1739
lfemur -24.3457 2.53813 -17.0211
ltibia 54.3392
lfoot -11.3966 12.1027
ltoes -12.5857
2528
root 27.7268 16.8188 -5.77326 3076.58 83.4111 -524.068
lowerback -0.558374 0.484814 3.66016
upperback 6.29523 0.573253 1.56757
thorax 6.88996 0.512656 -0.364176
lowerneck -10.0632 -1.83404 0.709171
upperneck 23.5196 -3.23337 4.54569
head 9.09627 -0.756745 1.11897
rclavicle -1.15295e-014 -1.51076e-014
rhumerus -16.0509 -0.560073 -86.7274
rradius 23.3197
rwrist -1.08559
rhand -22.3756 5.62728
rfingers 7.12502
rthumb 4.0461 -24.314
lclavicle -1.15295e-014 -1.51076e-014
lhumerus -29.1358 6.14009 86.4697
lradius 31.2409
lwrist 9.76312
lhand -19.4941 14.5822
lfingers 7.12502
lthumb 6.82817 44.4521
rfemur -9.09283 -3.22275 28.8065
rtibia 31.7317
rfoot -24.9422 -8.81633
rtoes 18.2831
lfemur -24.8179 2.45123 -17.1158
ltibia 53.6334
lfoot -11.5696 12.0165
ltoes -12.52
2529
root 27.7928 16.8177 -5.77376 3076.62 83.3469 -523.972
lowerback -0.515898 0.506185 3.73027
upperback 6.30989 0.602322 1.56423
thorax 6.88343 0.531833 -0.405086
lowerneck -10.0442 -1.83408 0.708681
upperneck 23.4987 -3.23237 4.55008
head 9.08549 -0.75643 1.12064
rclavicle 3.8763e-015 -5.56597e-015
rhumerus -15.9618 0.0923666 -86.8989
rradius 23.7516
rwrist -1.55265
rhand -22.3678 5.61865
rfingers 7.12502
rthumb 4.05363 -24.3225
lclavicle 3.8763e-015 -5.56597e-015
lhumerus -29.1193 6.11115 86.5474
lradius 31.4833
lwrist 9.84199
lhand -19.4994 14.5562
lfingers 7.12502
lthumb 6.82311 44.4263
rfemur -8.66296 -3.22851 28.8645
rtibia 31.5127
rfoot -25.0536 -8.87377
rtoes 18.3839
lfemur -25.2375 2.38802 -17.2173
ltibia 52.8161
lfoot -11.6313 11.9253
ltoes -12.5504
2530
root 27.8589 16.8173 -5.77461 3076.68 83.2845 -523.866
lowerback -0.476317 0.524325 3.79696
upperback 6.32251 0.627024 1.56109
thorax 6.87624 0.548566 -0.444178
lowerneck -10.0254 -1.82972 0.709176
upperneck 23.4842 -3.22567 4.5555
head 9.07685 -0.75301 1.12317
rclavicle 1.55052e-014 4.25399e-014
rhumerus -15.8764 0.710719 -87.066
rradius 24.1697
rwrist -1.98664
rhand -22.3675 5.61639
rfingers 7.12502
rthumb 4.05393 -24.3248
lclavicle 1.55052e-014 4.25399e-014
lhumerus -29.1114 6.07926 86.6286
lradius 31.7217
lwrist 9.92018
lhand -19.4967 14.5399
lfingers 7.12502
lthumb 6.82568 44.4099
rfemur -8.2235 -3.22803 28.9233
rtibia 31.2657
rfoot -25.1478 -8.94511
rtoes 18.4605
lfemur -25.6263 2.34633 -17.3266
ltibia 51.946
lfoot -11.6283 11.8225
ltoes -12.6671
2531
root 27.9253 16.8174 -5.77587 3076.74 83.2231 -523.763
lowerback -0.441399 0.539458 3.86023
upperback 6.33243 0.64757 1.55715
thorax 6.86873 0.562958 -0.482484
lowerneck -10.0068 -1.82237 0.712022
upperneck 23.4754 -3.21546 4.5619
head 9.07017 -0.747397 1.12607
rclavicle -2.38542e-015 -1.19271e-015
rhumerus -15.7933 1.29193 -87.2288
rradius 24.568
rwrist -2.37597
rhand -22.3711 5.61185
rfingers 7.12502
rthumb 4.05043 -24.3294
lclavicle -2.38542e-015 -1.19271e-015
lhumerus -29.115 6.03766 86.7147
lradius 31.9621
lwrist 10.0104
lhand -19.513 14.5473
lfingers 7.12502
lthumb 6.80992 44.4178
rfemur -7.77955 -3.22972 28.9806
rtibia 30.9975
rfoot -25.2196 -9.03125
rtoes 18.509
lfemur -25.987 2.32318 -17.4451
ltibia 51.0258
lfoot -11.5564 11.706
ltoes -12.8373
2532
root 27.9921 16.8181 -5.77758 3076.78 83.1664 -523.681
lowerback -0.411803 0.552376 3.91599
upperback 6.34068 0.665132 1.55231
thorax 6.8623 0.575394 -0.517715
lowerneck -9.98907 -1.81285 0.716667
upperneck 23.4743 -3.20257 4.56818
head 9.0662 -0.740075 1.12899
rclavicle -1.5704e-014 -1.63003e-014
rhumerus -15.711 1.83486 -87.3861
rradius 24.9434
rwrist -2.72494
rhand -22.3751 5.61931
rfingers 7.12502
rthumb 4.04651 -24.322
lclavicle -1.5704e-014 -1.63003e-014
lhumerus -29.1297 6.00103 86.7995
lradius 32.1938
lwrist 10.0862
lhand -19.5145 14.5179
lfingers 7.12502
lthumb 6.80852 44.3884
rfemur -7.33219 -3.23604 29.0322
rtibia 30.7134
rfoot -25.2764 -9.11563
rtoes 18.5221
lfemur -26.3188 2.31929 -17.5762
ltibia 50.0584
lfoot -11.4275 11.5764
ltoes -13.0327
2533
root 28.0593 16.8189 -5.77967 3076.83 83.116 -523.602
lowerback -0.386682 0.565653 3.96636
upperback 6.34784 0.683136 1.54633
thorax 6.85727 0.587721 -0.551065
lowerneck -9.97494 -1.80343 0.724542
upperneck 23.4804 -3.19004 4.57185
head 9.06534 -0.732597 1.13048
rclavicle -8.94531e-015 1.55052e-014
rhumerus -15.6306 2.33961 -87.5374
rradius 25.297
rwrist -3.0415
rhand -22.3777 5.61978
rfingers 7.12502
rthumb 4.044 -24.3216
lclavicle -8.94531e-015 1.55052e-014
lhumerus -29.1511 5.95946 86.8861
lradius 32.4139
lwrist 10.1552
lhand -19.5129 14.4593
lfingers 7.12502
lthumb 6.81005 44.3298
rfemur -6.88218 -3.2417 29.0802
rtibia 30.417
rfoot -25.3245 -9.19456
rtoes 18.525
lfemur -26.6209 2.33715 -17.7179
ltibia 49.0476
lfoot -11.241 11.4368
ltoes -13.2335
2534
root 28.1269 16.8199 -5.78217 3076.88 83.0726 -523.525
lowerback -0.364766 0.579312 4.01161
upperback 6.3528 0.701658 1.53908
thorax 6.85171 0.599939 -0.582859
lowerneck -9.96113 -1.79564 0.730999
upperneck 23.492 -3.18013 4.57821
head 9.06656 -0.725945 1.1329
rclavicle 4.96962e-016 2.18663e-014
rhumerus -15.5588 2.80454 -87.6845
rradius 25.6345
rwrist -3.32903
rhand -22.3766 5.61866
rfingers 7.12502
rthumb 4.04508 -24.3227
lclavicle 4.96962e-016 2.18663e-014
lhumerus -29.1831 5.9093 86.9773
lradius 32.6366
lwrist 10.231
lhand -19.5203 14.4281
lfingers 7.12502
lthumb 6.80289 44.2988
rfemur -6.43058 -3.24729 29.1241
rtibia 30.1102
rfoot -25.3632 -9.26669
rtoes 18.4866
lfemur -26.8947 2.37735 -17.8712
ltibia 47.9974
lfoot -11.0144 11.2934
ltoes -13.445
